<?xml version="1.0" encoding="utf-8"?>
<!-- Generator: Adobe Illustrator 16.0.0, SVG Export Plug-In . SVG Version: 6.00 Build 0)  -->
<!DOCTYPE svg PUBLIC "-//W3C//DTD SVG 1.1//EN" "http://www.w3.org/Graphics/SVG/1.1/DTD/svg11.dtd">
<svg version="1.1" id="Layer_1" xmlns="http://www.w3.org/2000/svg" xmlns:xlink="http://www.w3.org/1999/xlink" x="0px" y="0px"
	 width="25px" height="25px" viewBox="0 0 25 25" enable-background="new 0 0 25 25" xml:space="preserve">
<g>
	<path fill="#F9C412" d="M20.555,3.227V2.685c0-0.255-0.207-0.461-0.463-0.461H0.461C0.207,2.224,0,2.431,0,2.685v19.629
		c0,0.254,0.207,0.463,0.461,0.463h19.63c0.255,0,0.462-0.209,0.462-0.463V12.165l-2.46,2.458v5.693H2.46V4.683h15.634v1.002
		L20.555,3.227z"/>
	<path fill="#F9C412" d="M12.137,12.81c-0.049,0.049-0.079,0.113-0.081,0.177l-0.47,3.272c-0.012,0.087,0.017,0.175,0.079,0.235
		c0.053,0.054,0.122,0.082,0.196,0.082c0.014,0,0.026-0.001,0.04-0.004l3.258-0.469c0.071-0.002,0.14-0.03,0.19-0.084l7.392-7.391
		l-3.212-3.211L12.137,12.81z"/>
	<path fill="#F9C412" d="M25,6.255c0-0.075-0.029-0.145-0.082-0.197l-2.816-2.816c-0.101-0.102-0.293-0.102-0.395,0l-1.33,1.33
		l3.212,3.21l1.329-1.33C24.971,6.398,25,6.329,25,6.255L25,6.255z"/>
</g>
</svg>
