<?xml version="1.0" encoding="utf-8"?>
<!-- Generator: Adobe Illustrator 16.0.0, SVG Export Plug-In . SVG Version: 6.00 Build 0)  -->
<!DOCTYPE svg PUBLIC "-//W3C//DTD SVG 1.1//EN" "http://www.w3.org/Graphics/SVG/1.1/DTD/svg11.dtd">
<svg version="1.1" id="Layer_1" xmlns="http://www.w3.org/2000/svg" xmlns:xlink="http://www.w3.org/1999/xlink" x="0px" y="0px"
	 width="25px" height="25px" viewBox="0 0 25 25" enable-background="new 0 0 25 25" xml:space="preserve">
<g>
	<path fill="#FFFFFF" d="M16.479,8.081l1.764,1.771l-7.067,7.067L6.757,12.5l1.764-1.77l2.655,2.654L16.479,8.081z M25,4.999v15.002
		C25,22.748,22.748,25,20.002,25H4.999C2.252,25,0,22.748,0,20.001V4.999C0,2.251,2.252,0,4.999,0h15.003
		C22.748,0,25,2.251,25,4.999L25,4.999z M21.875,12.5c0-5.175-4.2-9.375-9.375-9.375c-5.176,0-9.375,4.2-9.375,9.375
		c0,5.174,4.199,9.375,9.375,9.375C17.675,21.875,21.875,17.674,21.875,12.5L21.875,12.5z M21.875,12.5"/>
</g>
</svg>
