<?xml version="1.0" encoding="utf-8"?>
<!-- Generator: Adobe Illustrator 16.0.0, SVG Export Plug-In . SVG Version: 6.00 Build 0)  -->
<!DOCTYPE svg PUBLIC "-//W3C//DTD SVG 1.1//EN" "http://www.w3.org/Graphics/SVG/1.1/DTD/svg11.dtd">
<svg version="1.1" id="Layer_1" xmlns="http://www.w3.org/2000/svg" xmlns:xlink="http://www.w3.org/1999/xlink" x="0px" y="0px"
	 width="25px" height="25px" viewBox="0 0 25 25" enable-background="new 0 0 25 25" xml:space="preserve">
<g>
	<g>
		<path fill="#FFFFFF" d="M24.58,11.298l-3.788-4.069v-4.7c0-0.85-0.642-1.539-1.435-1.539c-0.791,0-1.432,0.688-1.432,1.539v1.623
			l-2.821-3.03c-1.395-1.497-3.82-1.495-5.212,0.002L0.419,11.298c-0.559,0.602-0.559,1.576,0,2.176c0.56,0.602,1.468,0.602,2.027,0
			L11.919,3.3c0.309-0.33,0.853-0.33,1.16-0.001l9.474,10.175c0.281,0.301,0.647,0.451,1.014,0.451c0.367,0,0.734-0.149,1.014-0.451
			C25.14,12.874,25.14,11.899,24.58,11.298L24.58,11.298z M24.58,11.298"/>
	</g>
	<path fill="#FFFFFF" d="M12.997,6.221c-0.275-0.295-0.721-0.295-0.995,0l-8.333,8.947c-0.131,0.141-0.206,0.334-0.206,0.535v6.524
		C3.463,23.759,4.619,25,6.044,25h4.125v-6.861h4.658V25h4.126c1.426,0,2.582-1.241,2.582-2.772v-6.524
		c0-0.201-0.074-0.395-0.206-0.535L12.997,6.221z M12.997,6.221"/>
</g>
</svg>
