<?xml version="1.0" encoding="utf-8"?>
<!-- Generator: Adobe Illustrator 16.0.0, SVG Export Plug-In . SVG Version: 6.00 Build 0)  -->
<!DOCTYPE svg PUBLIC "-//W3C//DTD SVG 1.1//EN" "http://www.w3.org/Graphics/SVG/1.1/DTD/svg11.dtd">
<svg version="1.1" id="Layer_1" xmlns="http://www.w3.org/2000/svg" xmlns:xlink="http://www.w3.org/1999/xlink" x="0px" y="0px"
	 width="25px" height="25px" viewBox="0 0 25 25" enable-background="new 0 0 25 25" xml:space="preserve">
<g>
	<path fill="#F9C411" d="M7.649,3.882L6.898,2.58C2.817,4.918,0.05,9.296,0,14.314h1.504C1.555,9.852,4.018,5.96,7.649,3.882z"/>
	<path fill="#F9C411" d="M13.673,2.28c2.19,0,4.246,0.585,6.022,1.602l0.753-1.302c-1.999-1.145-4.312-1.804-6.775-1.804
		S8.898,1.435,6.899,2.58L7.65,3.882C9.428,2.865,11.482,2.28,13.673,2.28z"/>
	<path fill="#F9C411" d="M8.824,5.916L8.072,4.614c-3.379,1.932-5.672,5.55-5.722,9.7h1.505C3.904,10.72,5.895,7.587,8.824,5.916z"
		/>
	<path fill="#F9C411" d="M23.496,14.454c0,3.604-1.952,6.759-4.854,8.468l0.752,1.303C22.745,22.254,25,18.614,25,14.454
		c0-0.047-0.003-0.093-0.004-0.14h-1.503C23.493,14.361,23.496,14.407,23.496,14.454z"/>
	<path fill="#F9C411" d="M8.072,4.614l0.752,1.302c1.432-0.816,3.086-1.285,4.849-1.285s3.418,0.469,4.851,1.285l0.752-1.302
		c-1.653-0.944-3.564-1.488-5.603-1.488C11.637,3.126,9.726,3.67,8.072,4.614z"/>
	<path fill="#F9C411" d="M23.493,14.314h1.503c-0.051-4.15-2.344-7.77-5.723-9.7l-0.752,1.302
		C21.452,7.587,23.441,10.72,23.493,14.314z"/>
	<path fill="#F9C411" d="M9.998,7.95L9.247,6.648C6.57,8.173,4.75,11.032,4.7,14.314h1.504C6.254,11.588,7.771,9.214,9.998,7.95z"/>
	<path fill="#F9C411" d="M13.673,6.98c1.336,0,2.589,0.354,3.675,0.97L18.1,6.648c-1.308-0.744-2.816-1.172-4.427-1.172
		c-1.608,0-3.119,0.428-4.426,1.172L9.998,7.95C11.085,7.335,12.338,6.98,13.673,6.98z"/>
	<path fill="#F9C411" d="M21.143,14.314h1.504c-0.049-3.282-1.869-6.143-4.547-7.667L17.348,7.95
		C19.575,9.214,21.093,11.588,21.143,14.314z"/>
	<path fill="#F9C411" d="M13.673,21.927c-1.384,0-2.682-0.38-3.794-1.038l-0.752,1.301c1.334,0.787,2.888,1.242,4.546,1.242
		c1.658,0,3.212-0.455,4.548-1.242l-0.753-1.301C16.354,21.547,15.059,21.927,13.673,21.927z"/>
	<path fill="#F9C411" d="M21.146,14.454c0,2.735-1.479,5.132-3.679,6.435l0.753,1.301c2.647-1.563,4.43-4.443,4.43-7.734
		c0-0.047-0.002-0.094-0.004-0.139h-1.504C21.145,14.361,21.146,14.407,21.146,14.454z"/>
</g>
</svg>
