<?xml version="1.0" encoding="utf-8"?>
<!-- Generator: Adobe Illustrator 16.0.0, SVG Export Plug-In . SVG Version: 6.00 Build 0)  -->
<!DOCTYPE svg PUBLIC "-//W3C//DTD SVG 1.1//EN" "http://www.w3.org/Graphics/SVG/1.1/DTD/svg11.dtd">
<svg version="1.1" id="Layer_1" xmlns="http://www.w3.org/2000/svg" xmlns:xlink="http://www.w3.org/1999/xlink" x="0px" y="0px"
	 width="25px" height="25px" viewBox="0 0 25 25" enable-background="new 0 0 25 25" xml:space="preserve">
<g>
	<path fill="#FFFFFF" d="M6.477,6.196L3.773,3.55c2.313-2.259,5.293-3.442,8.304-3.544l0.04,3.783
		C10.074,3.879,8.06,4.683,6.477,6.196z"/>
	<path fill="#FFFFFF" d="M12.302,21.217L12.343,25c-3.013-0.038-6.016-1.157-8.377-3.366l2.646-2.703
		C8.227,20.41,10.258,21.171,12.302,21.217z"/>
	<path fill="#FFFFFF" d="M12.698,3.783L12.658,0c3.012,0.038,6.016,1.157,8.377,3.366L18.389,6.07
		C16.773,4.59,14.742,3.829,12.698,3.783z"/>
	<path fill="#FFFFFF" d="M18.523,18.804l2.704,2.646c-2.314,2.259-5.293,3.442-8.304,3.544l-0.04-3.783
		C14.927,21.121,16.941,20.317,18.523,18.804z"/>
	<path fill="#FFFFFF" d="M6.196,18.523L3.55,21.227c-2.258-2.313-3.441-5.292-3.543-8.303l3.782-0.04
		C3.879,14.926,4.683,16.941,6.196,18.523z"/>
	<path fill="#FFFFFF" d="M3.783,12.302L0,12.342C0.038,9.33,1.158,6.327,3.366,3.965L6.07,6.612
		C4.591,8.227,3.829,10.258,3.783,12.302z"/>
	<path fill="#FFFFFF" d="M21.217,12.698L25,12.658c-0.038,3.012-1.157,6.015-3.366,8.377l-2.703-2.646
		C20.41,16.773,21.171,14.742,21.217,12.698z"/>
	<path fill="#FFFFFF" d="M15.622,12.467c0,0.011,0.002,0.022,0.002,0.033c0,1.726-1.398,3.124-3.124,3.124S9.376,14.226,9.376,12.5
		s1.398-3.124,3.124-3.124c0.851,0,1.621,0.341,2.185,0.893l1.614-1.649c-2.143-2.098-5.581-2.062-7.68,0.082
		c-2.098,2.144-2.062,5.581,0.082,7.68c2.144,2.098,5.581,2.062,7.68-0.082c1.049-1.071,1.564-2.467,1.55-3.856L15.622,12.467z"/>
</g>
</svg>
