<?xml version="1.0" encoding="utf-8"?>
<!-- Generator: Adobe Illustrator 16.0.0, SVG Export Plug-In . SVG Version: 6.00 Build 0)  -->
<!DOCTYPE svg PUBLIC "-//W3C//DTD SVG 1.1//EN" "http://www.w3.org/Graphics/SVG/1.1/DTD/svg11.dtd">
<svg version="1.1" id="Layer_1" xmlns="http://www.w3.org/2000/svg" xmlns:xlink="http://www.w3.org/1999/xlink" x="0px" y="0px"
	 width="25px" height="25px" viewBox="0 0 25 25" enable-background="new 0 0 25 25" xml:space="preserve">
<g>
	<path fill="#6D6E71" d="M7.649,3.882L6.898,2.58C2.817,4.918,0.05,9.296,0,14.315h1.504C1.555,9.852,4.018,5.96,7.649,3.882z"/>
	<path fill="#6D6E71" d="M13.673,2.28c2.19,0,4.246,0.585,6.023,1.602l0.752-1.302c-1.999-1.145-4.311-1.804-6.775-1.804
		c-2.464,0-4.775,0.659-6.774,1.804l0.751,1.302C9.428,2.865,11.482,2.28,13.673,2.28z"/>
	<path fill="#6D6E71" d="M8.824,5.916L8.072,4.614C4.693,6.546,2.4,10.164,2.35,14.315h1.505C3.904,10.72,5.895,7.587,8.824,5.916z"
		/>
	<path fill="#6D6E71" d="M23.496,14.454c0,3.604-1.952,6.759-4.854,8.468l0.752,1.302c3.351-1.97,5.606-5.61,5.606-9.77
		c0-0.047-0.003-0.093-0.004-0.139h-1.503C23.493,14.361,23.496,14.407,23.496,14.454z"/>
	<path fill="#6D6E71" d="M8.072,4.614l0.752,1.302c1.432-0.816,3.086-1.285,4.849-1.285s3.418,0.469,4.85,1.285l0.752-1.302
		c-1.653-0.944-3.564-1.488-5.602-1.488C11.637,3.126,9.726,3.67,8.072,4.614z"/>
	<path fill="#6D6E71" d="M23.493,14.315h1.503c-0.05-4.151-2.343-7.77-5.722-9.701l-0.752,1.302
		C21.452,7.587,23.442,10.72,23.493,14.315z"/>
	<path fill="#6D6E71" d="M9.998,7.95L9.247,6.648C6.57,8.173,4.75,11.032,4.7,14.315h1.504C6.254,11.588,7.771,9.214,9.998,7.95z"/>
	<path fill="#6D6E71" d="M13.673,6.98c1.336,0,2.589,0.354,3.675,0.97L18.1,6.648c-1.308-0.744-2.817-1.172-4.427-1.172
		c-1.608,0-3.119,0.428-4.426,1.172L9.998,7.95C11.085,7.335,12.338,6.98,13.673,6.98z"/>
	<path fill="#6D6E71" d="M21.143,14.315h1.504c-0.05-3.283-1.87-6.143-4.547-7.667L17.348,7.95
		C19.575,9.214,21.093,11.588,21.143,14.315z"/>
	<path fill="#6D6E71" d="M13.673,21.927c-1.384,0-2.682-0.38-3.794-1.039l-0.752,1.302c1.334,0.787,2.888,1.241,4.546,1.241
		s3.212-0.454,4.547-1.241l-0.752-1.302C16.354,21.547,15.058,21.927,13.673,21.927z"/>
	<path fill="#6D6E71" d="M21.146,14.454c0,2.735-1.479,5.132-3.678,6.434l0.752,1.302c2.648-1.563,4.431-4.444,4.431-7.735
		c0-0.047-0.003-0.093-0.004-0.139h-1.504C21.144,14.361,21.146,14.407,21.146,14.454z"/>
</g>
</svg>
